<mxfile host="app.diagrams.net" modified="2021-11-24T18:46:16.721Z" agent="5.0 (Windows NT 10.0; Win64; x64) AppleWebKit/537.36 (KHTML, like Gecko) Chrome/96.0.4664.45 Safari/537.36" etag="4hip1REWk1gmB-W3zpEP" version="15.8.5" type="github">
  <diagram id="Gywh-QFcYTV1GHyi83lR" name="Page-1">
    <mxGraphModel dx="2370" dy="1330" grid="1" gridSize="10" guides="1" tooltips="1" connect="1" arrows="1" fold="1" page="1" pageScale="1" pageWidth="850" pageHeight="1100" math="0" shadow="0">
      <root>
        <mxCell id="0" />
        <mxCell id="1" parent="0" />
        <mxCell id="R8rxgr2pULx4NfKm801h-16" value="" style="group" vertex="1" connectable="0" parent="1">
          <mxGeometry x="41" y="40" width="760" height="760" as="geometry" />
        </mxCell>
        <mxCell id="R8rxgr2pULx4NfKm801h-3" value="" style="rounded=0;whiteSpace=wrap;html=1;strokeWidth=3;strokeColor=#000099;" vertex="1" parent="R8rxgr2pULx4NfKm801h-16">
          <mxGeometry width="720" height="80" as="geometry" />
        </mxCell>
        <mxCell id="R8rxgr2pULx4NfKm801h-5" value="" style="rounded=0;whiteSpace=wrap;html=1;strokeWidth=3;strokeColor=#000099;" vertex="1" parent="R8rxgr2pULx4NfKm801h-16">
          <mxGeometry y="640" width="720" height="120" as="geometry" />
        </mxCell>
        <mxCell id="R8rxgr2pULx4NfKm801h-7" value="" style="rounded=0;whiteSpace=wrap;html=1;strokeWidth=3;strokeColor=#000099;" vertex="1" parent="R8rxgr2pULx4NfKm801h-16">
          <mxGeometry y="80" width="720" height="200" as="geometry" />
        </mxCell>
        <mxCell id="R8rxgr2pULx4NfKm801h-8" value="" style="rounded=0;whiteSpace=wrap;html=1;strokeWidth=3;strokeColor=#000099;" vertex="1" parent="R8rxgr2pULx4NfKm801h-16">
          <mxGeometry y="280" width="720" height="120" as="geometry" />
        </mxCell>
        <mxCell id="R8rxgr2pULx4NfKm801h-9" value="" style="rounded=0;whiteSpace=wrap;html=1;strokeWidth=3;strokeColor=#000099;" vertex="1" parent="R8rxgr2pULx4NfKm801h-16">
          <mxGeometry y="400" width="720" height="120" as="geometry" />
        </mxCell>
        <mxCell id="R8rxgr2pULx4NfKm801h-15" value="" style="rounded=0;whiteSpace=wrap;html=1;strokeWidth=3;strokeColor=#000099;" vertex="1" parent="R8rxgr2pULx4NfKm801h-16">
          <mxGeometry y="520" width="720" height="120" as="geometry" />
        </mxCell>
        <mxCell id="R8rxgr2pULx4NfKm801h-48" value="" style="rounded=0;whiteSpace=wrap;html=1;strokeColor=#336600;strokeWidth=1;fillColor=none;" vertex="1" parent="R8rxgr2pULx4NfKm801h-16">
          <mxGeometry x="560" width="80" height="760" as="geometry" />
        </mxCell>
        <mxCell id="R8rxgr2pULx4NfKm801h-49" value="" style="rounded=0;whiteSpace=wrap;html=1;strokeColor=#336600;strokeWidth=1;fillColor=none;" vertex="1" parent="R8rxgr2pULx4NfKm801h-16">
          <mxGeometry x="640" width="80" height="760" as="geometry" />
        </mxCell>
        <mxCell id="R8rxgr2pULx4NfKm801h-73" value="" style="group" vertex="1" connectable="0" parent="R8rxgr2pULx4NfKm801h-16">
          <mxGeometry width="720" height="760" as="geometry" />
        </mxCell>
        <mxCell id="R8rxgr2pULx4NfKm801h-17" value="" style="rounded=0;whiteSpace=wrap;html=1;strokeColor=#336600;strokeWidth=1;fillColor=none;" vertex="1" parent="R8rxgr2pULx4NfKm801h-73">
          <mxGeometry width="80" height="760" as="geometry" />
        </mxCell>
        <mxCell id="R8rxgr2pULx4NfKm801h-34" value="" style="rounded=0;whiteSpace=wrap;html=1;strokeColor=#336600;strokeWidth=1;fillColor=none;" vertex="1" parent="R8rxgr2pULx4NfKm801h-73">
          <mxGeometry x="80" width="80" height="760" as="geometry" />
        </mxCell>
        <mxCell id="R8rxgr2pULx4NfKm801h-43" value="" style="rounded=0;whiteSpace=wrap;html=1;strokeColor=#336600;strokeWidth=1;fillColor=none;" vertex="1" parent="R8rxgr2pULx4NfKm801h-73">
          <mxGeometry x="160" width="80" height="760" as="geometry" />
        </mxCell>
        <mxCell id="R8rxgr2pULx4NfKm801h-44" value="" style="rounded=0;whiteSpace=wrap;html=1;strokeColor=#336600;strokeWidth=1;fillColor=none;" vertex="1" parent="R8rxgr2pULx4NfKm801h-73">
          <mxGeometry x="240" width="80" height="760" as="geometry" />
        </mxCell>
        <mxCell id="R8rxgr2pULx4NfKm801h-45" value="" style="rounded=0;whiteSpace=wrap;html=1;strokeColor=#336600;strokeWidth=1;fillColor=none;" vertex="1" parent="R8rxgr2pULx4NfKm801h-73">
          <mxGeometry x="320" width="80" height="760" as="geometry" />
        </mxCell>
        <mxCell id="R8rxgr2pULx4NfKm801h-46" value="" style="rounded=0;whiteSpace=wrap;html=1;strokeColor=#336600;strokeWidth=1;fillColor=none;" vertex="1" parent="R8rxgr2pULx4NfKm801h-73">
          <mxGeometry x="400" width="80" height="760" as="geometry" />
        </mxCell>
        <mxCell id="R8rxgr2pULx4NfKm801h-47" value="" style="rounded=0;whiteSpace=wrap;html=1;strokeColor=#336600;strokeWidth=1;fillColor=none;" vertex="1" parent="R8rxgr2pULx4NfKm801h-73">
          <mxGeometry x="480" width="80" height="760" as="geometry" />
        </mxCell>
        <mxCell id="R8rxgr2pULx4NfKm801h-76" value="" style="rounded=0;whiteSpace=wrap;html=1;strokeColor=#336600;strokeWidth=1;fillColor=none;" vertex="1" parent="R8rxgr2pULx4NfKm801h-73">
          <mxGeometry x="80" width="80" height="760" as="geometry" />
        </mxCell>
        <mxCell id="R8rxgr2pULx4NfKm801h-77" value="" style="rounded=0;whiteSpace=wrap;html=1;strokeColor=#336600;strokeWidth=1;fillColor=none;" vertex="1" parent="R8rxgr2pULx4NfKm801h-73">
          <mxGeometry width="80" height="760" as="geometry" />
        </mxCell>
        <mxCell id="R8rxgr2pULx4NfKm801h-78" value="" style="rounded=0;whiteSpace=wrap;html=1;strokeColor=#336600;strokeWidth=1;fillColor=none;" vertex="1" parent="R8rxgr2pULx4NfKm801h-73">
          <mxGeometry x="160" width="80" height="760" as="geometry" />
        </mxCell>
        <mxCell id="R8rxgr2pULx4NfKm801h-79" value="" style="rounded=0;whiteSpace=wrap;html=1;strokeColor=#336600;strokeWidth=1;fillColor=none;" vertex="1" parent="R8rxgr2pULx4NfKm801h-73">
          <mxGeometry x="240" width="80" height="760" as="geometry" />
        </mxCell>
        <mxCell id="R8rxgr2pULx4NfKm801h-87" value="" style="group" vertex="1" connectable="0" parent="R8rxgr2pULx4NfKm801h-73">
          <mxGeometry width="720" height="760" as="geometry" />
        </mxCell>
        <mxCell id="R8rxgr2pULx4NfKm801h-71" value="" style="rounded=0;whiteSpace=wrap;html=1;strokeColor=#336600;strokeWidth=1;fillColor=none;" vertex="1" parent="R8rxgr2pULx4NfKm801h-87">
          <mxGeometry x="640" width="80" height="760" as="geometry" />
        </mxCell>
        <mxCell id="R8rxgr2pULx4NfKm801h-72" value="" style="rounded=0;whiteSpace=wrap;html=1;strokeColor=#336600;strokeWidth=1;fillColor=none;" vertex="1" parent="R8rxgr2pULx4NfKm801h-87">
          <mxGeometry x="560" width="80" height="760" as="geometry" />
        </mxCell>
        <mxCell id="R8rxgr2pULx4NfKm801h-80" value="" style="rounded=0;whiteSpace=wrap;html=1;strokeColor=#336600;strokeWidth=1;fillColor=none;" vertex="1" parent="R8rxgr2pULx4NfKm801h-87">
          <mxGeometry x="80" width="80" height="760" as="geometry" />
        </mxCell>
        <mxCell id="R8rxgr2pULx4NfKm801h-81" value="" style="rounded=0;whiteSpace=wrap;html=1;strokeColor=#336600;strokeWidth=1;fillColor=none;" vertex="1" parent="R8rxgr2pULx4NfKm801h-87">
          <mxGeometry width="80" height="760" as="geometry" />
        </mxCell>
        <mxCell id="R8rxgr2pULx4NfKm801h-82" value="" style="rounded=0;whiteSpace=wrap;html=1;strokeColor=#336600;strokeWidth=1;fillColor=none;" vertex="1" parent="R8rxgr2pULx4NfKm801h-87">
          <mxGeometry x="160" width="80" height="760" as="geometry" />
        </mxCell>
        <mxCell id="R8rxgr2pULx4NfKm801h-83" value="" style="rounded=0;whiteSpace=wrap;html=1;strokeColor=#336600;strokeWidth=1;fillColor=none;" vertex="1" parent="R8rxgr2pULx4NfKm801h-87">
          <mxGeometry x="240" width="80" height="760" as="geometry" />
        </mxCell>
        <mxCell id="R8rxgr2pULx4NfKm801h-84" value="" style="rounded=0;whiteSpace=wrap;html=1;strokeColor=#336600;strokeWidth=1;fillColor=none;" vertex="1" parent="R8rxgr2pULx4NfKm801h-87">
          <mxGeometry x="320" width="80" height="760" as="geometry" />
        </mxCell>
        <mxCell id="R8rxgr2pULx4NfKm801h-85" value="" style="rounded=0;whiteSpace=wrap;html=1;strokeColor=#336600;strokeWidth=1;fillColor=none;" vertex="1" parent="R8rxgr2pULx4NfKm801h-87">
          <mxGeometry x="480" width="80" height="760" as="geometry" />
        </mxCell>
        <mxCell id="R8rxgr2pULx4NfKm801h-86" value="" style="rounded=0;whiteSpace=wrap;html=1;strokeColor=#336600;strokeWidth=1;fillColor=none;" vertex="1" parent="R8rxgr2pULx4NfKm801h-87">
          <mxGeometry x="400" width="80" height="760" as="geometry" />
        </mxCell>
        <mxCell id="R8rxgr2pULx4NfKm801h-69" value="&lt;h1&gt;About me&lt;/h1&gt;&lt;p&gt;Lorem ipsum dolor sit amet, consectetur adipisicing elit, sed do eiusmod tempor incididunt ut labore et dolore magna aliqua.&lt;/p&gt;" style="text;html=1;strokeColor=none;fillColor=none;spacing=5;spacingTop=-20;whiteSpace=wrap;overflow=hidden;rounded=0;labelBackgroundColor=none;" vertex="1" parent="1">
          <mxGeometry x="380" y="1170" width="370" height="120" as="geometry" />
        </mxCell>
        <mxCell id="R8rxgr2pULx4NfKm801h-50" value="" style="verticalLabelPosition=bottom;shadow=0;dashed=0;align=center;html=1;verticalAlign=top;strokeWidth=1;shape=mxgraph.mockup.containers.userMale;strokeColor=#666666;strokeColor2=#008cff;fillColor=none;" vertex="1" parent="1">
          <mxGeometry x="170" y="1175" width="90" height="90" as="geometry" />
        </mxCell>
        <mxCell id="R8rxgr2pULx4NfKm801h-68" value="&lt;b&gt;BANNER&lt;/b&gt;" style="rounded=0;whiteSpace=wrap;html=1;strokeColor=#36393d;strokeWidth=1;fillColor=#eeeeee;labelBackgroundColor=none;" vertex="1" parent="1">
          <mxGeometry x="50" y="960" width="720" height="200" as="geometry" />
        </mxCell>
        <mxCell id="R8rxgr2pULx4NfKm801h-70" value="" style="dashed=0;outlineConnect=0;html=1;align=center;labelPosition=center;verticalLabelPosition=bottom;verticalAlign=top;shape=mxgraph.weblogos.adfty;fillColor=#66E8F3;gradientColor=#1C7CBA;labelBackgroundColor=none;strokeColor=#336600;strokeWidth=1;" vertex="1" parent="1">
          <mxGeometry x="50" y="880" width="70" height="80" as="geometry" />
        </mxCell>
        <mxCell id="R8rxgr2pULx4NfKm801h-64" value="RICARDO RUÍZ WEBPAGE" style="text;html=1;strokeColor=none;fillColor=none;align=center;verticalAlign=middle;whiteSpace=wrap;rounded=0;" vertex="1" parent="1">
          <mxGeometry x="460" y="890" width="290" height="60" as="geometry" />
        </mxCell>
      </root>
    </mxGraphModel>
  </diagram>
</mxfile>
